<?xml version="1.0" standalone="no"?>
<!DOCTYPE svg PUBLIC "-//W3C//DTD SVG 20010904//EN"
 "http://www.w3.org/TR/2001/REC-SVG-20010904/DTD/svg10.dtd">
<svg version="1.0" xmlns="http://www.w3.org/2000/svg"
 width="720.000000pt" height="1280.000000pt" viewBox="0 0 720.000000 1280.000000"
 preserveAspectRatio="xMidYMid meet">

<g transform="translate(0.000000,1280.000000) scale(0.100000,-0.100000)"
fill="#000000" stroke="none">
<path d="M0 11469 c0 -778 4 -1328 9 -1325 13 8 19 -25 31 -160 6 -65 15 -136
21 -157 9 -35 8 -43 -17 -78 -15 -22 -31 -42 -36 -45 -4 -3 -8 -651 -8 -1441
l0 -1436 37 8 c21 4 96 9 167 11 l129 4 24 43 c84 147 274 219 423 159 19 -7
3 -8 -60 -5 -71 4 -94 1 -143 -17 -31 -12 -63 -27 -70 -34 -6 -6 -27 -22 -45
-35 -42 -30 -95 -102 -84 -113 5 -5 20 -4 34 2 20 10 32 9 57 -5 18 -9 41 -13
52 -10 11 4 26 1 34 -5 21 -17 19 -42 -2 -38 -10 2 -28 -7 -42 -19 -17 -17
-36 -23 -67 -23 -32 0 -44 -4 -44 -15 0 -8 -9 -15 -21 -15 -11 0 -29 -4 -39
-10 -32 -17 -162 -42 -209 -41 -24 1 -53 7 -63 12 -14 7 -18 6 -18 -6 0 -9 -9
-15 -25 -15 l-25 0 0 -3330 0 -3330 1470 0 1470 0 0 58 c0 32 -3 62 -7 65 -3
4 -7 42 -9 84 -1 43 -5 121 -9 173 -8 117 -14 274 -14 358 0 40 -4 62 -12 62
-8 0 -9 11 -4 38 4 20 7 42 6 47 0 6 -3 30 -6 55 -3 25 -8 57 -11 72 -4 18 -2
28 5 28 15 0 3 72 -13 82 -8 5 -7 11 2 20 17 17 15 56 -3 74 -19 19 -19 29 -1
46 8 9 11 20 6 29 -5 8 -11 39 -13 69 -3 30 -10 67 -16 82 -5 15 -11 85 -13
155 l-3 128 55 5 c31 3 67 12 81 21 32 21 84 33 134 30 30 -2 47 -10 69 -32
15 -17 26 -33 22 -36 -7 -7 37 -42 78 -63 l31 -15 3 -100 c3 -94 -8 -188 -29
-245 -5 -14 -10 -38 -12 -55 -2 -16 -11 -42 -21 -57 -10 -15 -15 -31 -12 -36
13 -22 0 -480 -14 -497 -13 -16 -11 -91 2 -118 6 -11 6 -23 -1 -31 -5 -6 -13
-75 -16 -151 -3 -77 -10 -176 -16 -220 -5 -44 -9 -90 -9 -102 l0 -23 2015 0
2015 0 0 5415 c0 4910 -1 5415 -16 5415 -11 0 -14 6 -9 20 4 12 2 20 -5 20 -6
0 -8 5 -5 11 4 5 1 18 -7 27 -8 9 -20 35 -27 57 -22 66 -44 83 -56 44 -12 -36
-20 -6 -28 96 -2 17 -8 20 -44 16 -47 -3 -63 -31 -19 -31 16 0 27 -7 31 -21 8
-24 -1 -35 -29 -41 -32 -5 -29 -25 6 -33 l33 -7 -32 -11 c-22 -7 -33 -16 -33
-29 0 -11 -7 -26 -16 -35 -8 -9 -13 -21 -10 -28 3 -9 -7 -12 -39 -9 -42 3 -44
2 -34 -19 5 -12 12 -30 15 -39 3 -9 13 -19 23 -21 14 -4 14 -5 -1 -6 -10 0
-18 -5 -18 -11 0 -5 -4 -10 -10 -10 -5 0 -10 7 -10 15 0 8 -7 15 -15 15 -9 0
-20 11 -25 25 -12 32 -25 32 -65 -3 -28 -26 -31 -31 -19 -47 16 -22 18 -55 4
-55 -5 0 -10 -9 -10 -19 0 -11 -5 -23 -10 -26 -14 -9 -78 46 -79 68 -1 13 -10
17 -41 17 -42 0 -58 -24 -22 -33 13 -4 13 -5 -4 -6 -14 -1 -24 6 -27 20 -5 17
-9 19 -26 9 -19 -10 -21 -8 -21 20 0 27 -3 30 -30 30 -28 0 -30 2 -30 39 0 32
-4 40 -22 44 -13 3 -41 12 -63 20 l-40 15 3 53 c2 35 -1 55 -10 60 -10 7 -10
9 0 9 15 0 17 77 1 82 -5 2 -7 11 -4 21 4 9 10 15 14 13 3 -2 6 23 6 57 -1 34
3 65 8 68 5 4 3 16 -4 27 -10 16 -11 24 -2 33 14 14 -6 39 -31 39 -35 0 -14
28 25 35 12 3 24 7 27 9 8 8 -7 54 -23 70 -20 20 -19 26 6 26 20 0 21 1 5 25
-16 24 -15 24 19 31 43 8 56 24 21 24 -16 0 -26 6 -26 15 0 18 21 20 38 3 9
-9 12 -3 14 28 0 21 0 46 -1 54 -1 8 -3 41 -4 73 -2 37 -8 62 -17 67 -10 6 -3
10 23 15 36 7 46 18 28 29 -19 12 -19 48 0 64 10 9 19 24 19 34 0 10 5 18 11
18 6 0 18 7 26 16 14 13 14 17 2 26 -12 8 -12 10 0 15 7 3 23 15 34 26 l21 21
-32 8 c-23 6 -32 14 -32 29 0 13 5 19 13 16 9 -3 11 6 8 37 -2 22 -7 43 -12
46 -4 3 -9 25 -10 48 -2 23 -6 42 -9 42 -14 0 -29 52 -23 80 7 39 21 47 31 19
7 -19 10 -20 15 -6 4 10 2 17 -3 17 -6 0 -10 7 -10 16 0 10 6 14 15 10 23 -9
65 43 65 81 0 18 4 33 10 33 5 0 16 16 24 35 17 40 19 41 41 19 12 -13 19 -14
28 -5 14 14 30 15 22 1 -3 -6 -3 -19 0 -30 7 -24 45 -27 45 -5 0 9 7 29 16 46
11 23 20 29 35 24 15 -5 19 -2 19 18 0 16 7 26 20 30 22 6 37 -8 20 -18 -17
-11 -11 -30 13 -40 18 -8 23 -19 25 -62 2 -28 -1 -66 -6 -85 -5 -20 -4 -46 2
-67 9 -31 12 -33 48 -28 46 6 50 -4 8 -20 -38 -14 -41 -49 -5 -65 14 -6 28 -8
33 -3 4 4 1 10 -6 12 -15 6 -16 43 -2 43 6 0 19 -13 28 -30 21 -37 25 -37 42
-2 l14 27 4 -27 c3 -22 9 -28 29 -28 25 0 25 -2 21 -51 -5 -44 -3 -52 13 -56
22 -6 25 -23 5 -23 -30 0 -27 -23 8 -55 38 -35 46 -55 21 -55 -8 0 -15 -6 -15
-14 0 -15 22 -27 58 -32 17 -2 22 2 22 22 0 17 -5 24 -20 24 -25 0 -25 11 0
52 19 31 20 51 20 351 l0 317 -3600 0 -3600 0 0 -1331z m6624 1246 c-6 -16
-24 -21 -24 -7 0 11 11 22 21 22 5 0 6 -7 3 -15z m-5824 -69 c0 -3 -4 -8 -10
-11 -5 -3 -10 -1 -10 4 0 6 5 11 10 11 6 0 10 -2 10 -4z m6266 -244 c-11 -10
-15 4 -8 28 l7 25 3 -23 c2 -13 1 -26 -2 -30z m104 7 c0 -5 -10 -9 -21 -9 -18
0 -19 2 -9 15 12 15 30 12 30 -6z m-4450 -23 c0 -8 3 -21 6 -29 3 -8 -3 -23
-13 -32 -10 -10 -23 -28 -28 -39 -16 -32 -45 -33 -45 -2 0 14 4 26 9 26 5 0 7
-9 4 -20 -7 -28 10 -25 23 5 7 15 8 25 2 27 -6 2 -2 20 9 41 19 38 33 48 33
23z m3692 -53 c7 -9 7 -13 0 -13 -12 0 -22 25 -21 48 1 13 3 12 6 -3 3 -11 10
-26 15 -32z m-15 -75 c-3 -7 -5 -2 -5 12 0 14 2 19 5 13 2 -7 2 -19 0 -25z
m-5547 -60 c0 -16 -3 -19 -11 -11 -6 6 -8 16 -5 22 11 17 16 13 16 -11z m1480
-282 c0 -9 -30 -14 -35 -6 -4 6 3 10 14 10 12 0 21 -2 21 -4z m-40 -66 c-6
-11 -8 -20 -5 -20 2 0 -3 -9 -12 -20 -13 -15 -19 -17 -26 -7 -5 8 -7 3 -3 -13
4 -19 -3 -33 -30 -60 -20 -19 -40 -43 -45 -52 -6 -11 -22 -18 -42 -18 -27 -1
-29 -2 -14 -11 20 -12 23 -29 3 -29 -7 0 -19 -6 -26 -14 -10 -13 -17 -12 -51
6 -21 11 -39 25 -39 30 0 6 -8 17 -17 24 -17 13 -17 13 0 14 9 0 17 -4 17 -10
0 -5 11 -10 24 -10 34 0 86 20 86 34 0 6 9 17 20 23 16 11 21 10 30 -5 9 -15
10 -14 5 5 -5 19 -3 22 11 16 13 -5 16 -3 11 9 -4 12 -1 14 15 10 18 -4 20 -2
13 28 -6 26 -4 31 6 26 8 -4 5 0 -5 8 -11 9 -16 19 -12 23 4 4 11 1 16 -7 8
-12 14 -10 35 13 31 32 51 36 35 7z m-130 -80 c0 -5 -7 -10 -16 -10 -8 0 -12
5 -9 10 3 6 10 10 16 10 5 0 9 -4 9 -10z m-85 -80 c-3 -5 -11 -10 -16 -10 -6
0 -7 5 -4 10 3 6 11 10 16 10 6 0 7 -4 4 -10z m4225 -92 c0 -19 -2 -20 -10 -8
-13 19 -13 30 0 30 6 0 10 -10 10 -22z m0 -63 c0 -8 -4 -15 -10 -15 -5 0 -7 7
-4 15 4 8 8 15 10 15 2 0 4 -7 4 -15z m-4292 -50 c-21 -18 -38 -39 -38 -44 0
-6 -4 -11 -9 -11 -11 0 -3 39 12 58 6 7 16 11 23 8 7 -3 15 2 18 10 3 8 11 14
18 14 7 0 -4 -16 -24 -35z m4822 -700 c0 -9 7 -18 15 -21 8 -4 15 -15 15 -25
0 -14 -7 -19 -25 -19 -14 0 -25 5 -25 11 0 5 -4 8 -9 4 -11 -6 -31 26 -31 49
0 11 9 16 30 16 20 0 30 -5 30 -15z m155 5 c-3 -5 -10 -10 -16 -10 -5 0 -9 5
-9 10 0 6 7 10 16 10 8 0 12 -4 9 -10z m-195 -96 c0 -31 -23 -28 -28 4 -2 15
2 22 12 22 11 0 16 -9 16 -26z m-328 -9 c0 -5 -5 -11 -11 -13 -6 -2 -11 4 -11
13 0 9 5 15 11 13 6 -2 11 -8 11 -13z m-5332 -80 c-8 -9 -6 -14 6 -19 26 -10
36 -7 30 10 -4 11 1 18 14 21 11 3 20 9 20 14 0 5 7 9 15 9 8 0 15 -7 15 -15
0 -10 10 -15 30 -15 34 0 37 -8 13 -36 -20 -21 -79 -99 -103 -134 -43 -63 -73
-100 -79 -100 -11 0 -24 231 -15 254 7 18 8 18 21 0 12 -16 13 -15 13 15 0 29
2 32 15 21 11 -9 12 -16 5 -25z m-275 -1 c14 4 25 2 25 -4 0 -5 18 -10 40 -10
29 0 40 -4 40 -15 0 -8 -8 -15 -17 -15 -15 0 -16 -2 -3 -10 26 -17 33 -11 27
24 -3 19 -2 37 1 41 7 7 40 -267 41 -339 1 -40 -12 -61 -111 -177 -46 -54 -48
-60 -48 -116 0 -68 -5 -77 -32 -62 -56 30 -223 362 -237 474 -5 43 -9 49 -26
47 -27 -5 -27 -3 -14 -63 11 -54 78 -200 105 -230 8 -8 14 -19 14 -22 0 -4 23
-44 50 -88 28 -44 50 -84 50 -89 0 -4 22 -26 49 -49 38 -32 50 -49 55 -80 3
-22 13 -44 21 -49 9 -4 20 -35 26 -70 11 -60 10 -64 -15 -96 -14 -19 -26 -44
-26 -55 0 -24 23 -26 155 -11 305 35 543 51 765 53 187 2 250 -1 265 -11 17
-11 -3 -12 -118 -7 -77 3 -185 1 -240 -4 -56 -6 -162 -15 -236 -22 -80 -6
-165 -20 -211 -34 -43 -13 -104 -24 -137 -24 -32 -1 -110 -10 -173 -22 -63
-11 -128 -20 -144 -20 -16 0 -26 -2 -22 -6 10 -10 -25 -29 -85 -47 -68 -19
-84 -35 -65 -62 14 -18 15 -18 43 8 23 22 31 24 43 15 9 -7 16 -22 17 -34 1
-19 -5 -22 -55 -27 -31 -4 -69 -7 -84 -8 -16 0 -28 -5 -28 -10 0 -5 -4 -6 -10
-3 -5 3 -18 1 -29 -5 -11 -5 -39 -12 -62 -15 -23 -3 -45 -8 -50 -10 -4 -3 -10
1 -13 7 -3 9 -8 8 -16 -4 -6 -10 -18 -18 -26 -18 -9 0 -31 -7 -50 -16 -57 -27
-39 -63 33 -64 12 0 24 -8 26 -17 3 -10 11 -42 18 -70 10 -43 17 -53 34 -53
12 0 26 -5 32 -11 7 -7 17 -4 34 13 29 28 85 38 76 14 -10 -24 2 -19 34 15 25
27 34 30 66 25 21 -3 39 -5 39 -6 1 0 4 -12 8 -27 3 -16 15 -39 27 -53 l21
-25 -6 43 c-5 33 -3 42 8 42 13 0 46 -86 46 -120 0 -14 -41 -3 -53 14 -5 6 -6
-4 -3 -23 3 -18 6 -49 6 -67 0 -25 4 -34 16 -34 14 0 14 -3 4 -15 -19 -23 -30
-18 -30 14 0 17 -4 32 -8 35 -12 7 -46 -35 -34 -43 5 -3 12 -23 16 -43 5 -29
3 -39 -11 -46 -12 -7 -14 -14 -7 -24 6 -7 9 -23 8 -36 -1 -13 7 -29 18 -36 12
-9 16 -19 12 -31 -5 -13 -2 -16 12 -13 15 3 18 10 16 37 -3 27 -1 32 15 29 11
-2 19 -14 21 -31 2 -18 9 -27 22 -27 22 0 33 65 13 81 -7 7 -10 23 -6 42 8 43
22 57 34 35 12 -22 33 -24 25 -2 -3 8 -2 12 4 9 6 -3 13 2 17 11 4 10 2 19 -5
22 -22 7 -12 20 13 18 19 -1 25 -7 25 -23 0 -24 16 -31 22 -11 3 7 11 -1 19
-18 15 -29 14 -31 -13 -54 -15 -13 -28 -32 -28 -41 0 -24 -19 -34 -26 -15 -14
38 -24 10 -24 -68 0 -64 -4 -88 -16 -100 -8 -9 -19 -16 -24 -16 -16 0 -23 22
-9 31 7 4 10 11 7 15 -4 4 -3 15 2 25 18 33 -5 27 -27 -7 -12 -19 -18 -34 -14
-34 5 0 11 -9 14 -21 7 -24 -12 -71 -25 -63 -4 3 -11 -1 -14 -10 -6 -16 -25
-25 -64 -32 -14 -3 -40 -20 -58 -39 -18 -19 -41 -35 -51 -35 -13 0 -18 -6 -17
-17 2 -10 -1 -31 -7 -46 -7 -21 -6 -32 5 -45 34 -39 28 -73 -10 -53 -14 7 -21
5 -31 -11 -14 -23 -6 -37 11 -20 18 18 72 14 89 -6 20 -23 49 -81 49 -97 0
-17 -28 -70 -37 -70 -4 0 -26 -17 -48 -37 -25 -24 -43 -34 -49 -28 -14 14 -75
11 -121 -5 -49 -18 -45 -18 -45 0 0 8 6 15 14 15 20 0 29 16 21 40 -4 14 -15
20 -36 20 l-29 0 0 80 c0 64 -3 80 -15 80 -11 0 -15 -11 -15 -40 0 -22 -4 -40
-10 -40 -5 0 -10 11 -10 24 0 13 -7 29 -15 36 -8 7 -13 15 -10 19 2 4 5 27 6
50 3 38 19 72 19 38 0 -9 12 -13 38 -12 33 0 37 4 40 28 3 25 1 27 -36 27 -22
0 -53 3 -69 6 -20 4 -35 1 -46 -10 -8 -9 -22 -16 -30 -16 -20 0 -30 -27 -28
-71 3 -41 -16 -62 -31 -35 -6 10 -22 16 -43 16 -19 0 -37 6 -42 13 -5 8 -10 0
-15 -23 -7 -36 -1 128 7 210 3 25 9 88 14 140 11 117 19 192 26 245 3 22 8 69
10 105 3 36 12 126 20 200 9 74 20 185 25 245 5 61 14 146 19 190 5 44 15 122
21 174 10 93 22 131 40 131 19 0 98 66 113 95 27 52 44 128 46 200 2 87 27
320 42 398 12 60 26 75 69 76 14 0 33 0 43 1 9 0 31 -1 49 -2 18 -1 34 4 36
10 2 7 10 12 18 12 7 0 19 9 26 20 7 11 19 20 26 20 7 0 12 6 11 13 -1 6 -1
17 0 24 1 14 81 22 98 9 7 -4 24 -5 38 -2z m5632 -116 c-3 -8 -6 -5 -6 6 -1
11 2 17 5 13 3 -3 4 -12 1 -19z m-147 2 c0 -5 -4 -10 -10 -10 -5 0 -10 5 -10
10 0 6 5 10 10 10 6 0 10 -4 10 -10z m-5991 -125 c0 -49 -4 -182 -8 -295 -6
-192 -8 -207 -30 -243 -23 -38 -67 -65 -82 -50 -4 4 -3 45 2 90 6 45 9 97 7
115 l-3 33 -50 -70 c-56 -80 -74 -100 -81 -92 -14 14 -21 87 -23 231 -2 143
-1 156 15 156 17 0 16 1 -1 13 -21 16 -13 37 13 32 9 -2 21 -4 26 -4 4 -1 6
-10 3 -21 -3 -13 0 -20 9 -20 10 0 14 12 14 40 l0 40 40 0 c36 0 40 3 40 25 0
19 -5 25 -21 25 -32 0 -19 32 21 51 19 9 43 26 54 37 15 17 21 19 37 9 17 -10
19 -24 18 -102z m595 -1280 c3 -8 9 -15 13 -14 28 5 34 -3 31 -38 -4 -44 -21
-53 -43 -20 -25 38 -36 87 -20 87 7 0 15 -7 19 -15z m-56 -122 c-10 -2 -18
-12 -18 -20 0 -9 -3 -14 -6 -10 -12 11 5 37 23 36 17 -1 17 -2 1 -6z m-64
-142 c17 -14 22 -41 7 -41 -15 0 -28 23 -35 60 -4 25 -4 29 3 15 5 -12 16 -27
25 -34z m237 -145 c-5 -6 -11 -31 -15 -56 -3 -25 -7 -51 -8 -57 -2 -15 -8 -16
-25 -5 -8 5 -8 13 1 31 10 18 10 31 3 52 -13 34 4 60 34 52 13 -4 16 -9 10
-17z m-291 -5 c0 -6 -4 -13 -10 -16 -5 -3 -10 1 -10 9 0 9 5 16 10 16 6 0 10
-4 10 -9z m-515 -501 c3 -5 1 -10 -4 -10 -6 0 -11 5 -11 10 0 6 2 10 4 10 3 0
8 -4 11 -10z m469 -234 c-3 -9 -10 -16 -15 -16 -5 0 -4 9 3 20 14 22 21 20 12
-4z m-51 -103 c-7 -2 -19 -2 -25 0 -7 3 -2 5 12 5 14 0 19 -2 13 -5z m4191
-542 c19 -21 35 -78 29 -98 -3 -8 -13 -8 -38 3 -46 19 -68 18 -95 -6 -18 -16
-37 -20 -95 -20 -116 0 -195 -11 -195 -27 0 -17 -42 -34 -54 -22 -22 20 -27 5
-22 -66 2 -41 0 -77 -5 -80 -5 -4 -9 3 -9 14 0 27 -10 51 -22 51 -5 0 -21 11
-36 25 -15 14 -34 25 -44 25 -25 0 -34 21 -15 35 22 16 22 28 -1 21 -21 -7
-58 17 -49 31 4 6 19 14 34 18 16 3 37 17 48 31 16 19 33 25 80 29 88 8 332
35 395 45 30 4 60 8 66 9 6 0 19 -8 28 -18z m-3480 -256 c8 -8 19 -15 25 -15
13 0 15 -27 2 -35 -5 -3 -15 -21 -21 -40 -16 -48 8 -68 101 -87 l74 -15 -60
-12 c-33 -6 -70 -14 -82 -16 -12 -3 -25 -14 -28 -25 -9 -27 -39 -27 -32 0 4
17 0 20 -24 20 -19 0 -29 -5 -29 -15 0 -18 -17 -20 -23 -2 -2 6 -3 -1 -1 -16
5 -37 -18 -44 -56 -17 -40 29 -90 24 -107 -10 -11 -23 -12 -23 -19 -5 -4 11
-15 25 -23 32 -23 16 -13 22 54 28 82 7 120 19 121 36 0 8 2 26 2 42 2 22 8
29 30 33 28 6 28 6 21 62 -4 31 -6 59 -3 64 9 14 62 9 78 -7z m-447 -261 c-3
-3 -12 -4 -19 -1 -8 3 -5 6 6 6 11 1 17 -2 13 -5z m-162 -35 c-24 -5 -27 -7
-12 -13 17 -8 24 -36 8 -36 -5 0 -30 12 -57 28 l-49 27 55 5 c63 6 101 -1 55
-11z m2290 -4679 c0 -8 -8 -16 -17 -18 -13 -2 -18 3 -18 18 0 15 5 20 18 18 9
-2 17 -10 17 -18z"/>
<path d="M470 9344 c0 -8 4 -13 9 -10 5 3 20 -5 34 -18 14 -13 28 -21 32 -18
6 7 -52 62 -66 62 -5 0 -9 -7 -9 -16z"/>
<path d="M303 9285 c-9 -10 -8 -14 6 -18 12 -3 18 0 17 9 -3 21 -10 23 -23 9z"/>
<path d="M482 8460 c0 -14 2 -19 5 -12 2 6 2 18 0 25 -3 6 -5 1 -5 -13z"/>
<path d="M506 8460 c-10 -46 -9 -55 8 -97 20 -47 42 -59 32 -17 -4 14 -9 45
-13 67 -7 58 -20 79 -27 47z"/>
<path d="M511 8254 c0 -11 3 -14 6 -6 3 7 2 16 -1 19 -3 4 -6 -2 -5 -13z"/>
<path d="M133 8150 c-2 -23 22 -27 30 -6 5 11 -11 26 -27 26 -1 0 -2 -9 -3
-20z"/>
<path d="M636 7933 c-6 -14 -5 -15 5 -6 7 7 10 15 7 18 -3 3 -9 -2 -12 -12z"/>
<path d="M6760 12616 c0 -14 5 -28 10 -31 6 -3 10 -3 10 2 0 4 3 18 6 31 5 16
2 22 -10 22 -10 0 -16 -9 -16 -24z"/>
<path d="M6780 12520 c0 -22 -4 -40 -10 -40 -5 0 -7 -7 -4 -15 9 -23 31 -18
38 9 7 29 -3 86 -15 86 -5 0 -9 -18 -9 -40z"/>
<path d="M6641 12476 c2 -2 14 -9 27 -15 18 -10 22 -9 22 4 0 10 -9 15 -27 15
-14 0 -24 -2 -22 -4z"/>
<path d="M6480 12390 c0 -5 4 -10 9 -10 6 0 13 5 16 10 3 6 -1 10 -9 10 -9 0
-16 -4 -16 -10z"/>
<path d="M6800 12356 c0 -10 9 -16 21 -16 24 0 21 23 -4 28 -10 2 -17 -3 -17
-12z"/>
<path d="M6738 12303 c-13 -3 -35 -33 -24 -33 18 0 65 24 60 31 -5 9 -8 10
-36 2z"/>
<path d="M6560 12280 c0 -5 5 -10 10 -10 6 0 10 5 10 10 0 6 -4 10 -10 10 -5
0 -10 -4 -10 -10z"/>
<path d="M6631 12214 c0 -11 3 -14 6 -6 3 7 2 16 -1 19 -3 4 -6 -2 -5 -13z"/>
<path d="M7185 12000 c3 -5 8 -10 11 -10 2 0 4 5 4 10 0 6 -5 10 -11 10 -5 0
-7 -4 -4 -10z"/>
<path d="M7110 11961 c0 -22 4 -43 10 -46 6 -3 7 1 4 9 -4 9 -1 16 6 16 10 0
10 3 0 15 -7 8 -10 22 -6 30 3 8 1 15 -4 15 -6 0 -10 -18 -10 -39z"/>
<path d="M7185 11950 c-3 -5 -1 -10 4 -10 6 0 11 5 11 10 0 6 -2 10 -4 10 -3
0 -8 -4 -11 -10z"/>
<path d="M7180 11840 c-13 -8 -12 -10 3 -10 9 0 17 5 17 10 0 12 -1 12 -20 0z"/>
<path d="M7175 11790 c-3 -5 1 -10 9 -10 9 0 16 5 16 10 0 6 -4 10 -9 10 -6 0
-13 -4 -16 -10z"/>
<path d="M7120 11720 c0 -5 7 -10 16 -10 8 0 12 5 9 10 -3 6 -10 10 -16 10 -5
0 -9 -4 -9 -10z"/>
<path d="M7120 11581 c0 -43 10 -61 33 -61 19 0 19 1 4 18 -10 10 -17 28 -17
40 0 11 -4 24 -10 27 -6 4 -10 -6 -10 -24z"/>
<path d="M7192 11590 c0 -14 2 -19 5 -12 2 6 2 18 0 25 -3 6 -5 1 -5 -13z"/>
<path d="M7031 11521 c-8 -5 5 -7 35 -4 27 3 51 7 53 9 9 8 -75 3 -88 -5z"/>
<path d="M6960 11475 c0 -8 9 -15 20 -15 11 0 20 2 20 5 0 2 -9 9 -20 15 -16
9 -20 8 -20 -5z"/>
<path d="M7172 11473 c-21 -8 -52 -90 -46 -121 2 -15 6 -45 8 -67 5 -66 27
-135 47 -146 18 -9 19 -3 19 166 0 96 -3 175 -7 174 -5 0 -14 -3 -21 -6z"/>
<path d="M7020 11411 c0 -6 5 -13 10 -16 6 -3 10 1 10 9 0 9 -4 16 -10 16 -5
0 -10 -4 -10 -9z"/>
<path d="M7077 11339 c4 -12 11 -18 20 -15 8 3 17 6 19 6 2 0 4 7 4 15 0 9 -9
15 -24 15 -19 0 -23 -4 -19 -21z"/>
<path d="M7107 11265 c-4 -8 -2 -17 3 -20 6 -4 10 3 10 14 0 25 -6 27 -13 6z"/>
<path d="M6368 11174 c-5 -4 -8 -18 -8 -31 0 -12 -5 -23 -12 -23 -6 0 -1 -11
12 -25 26 -27 45 -32 52 -12 7 18 -2 37 -17 37 -8 0 -15 13 -17 31 -2 17 -6
27 -10 23z"/>
<path d="M7075 11060 c-8 -13 -1 -24 14 -19 6 3 7 10 2 18 -6 10 -10 10 -16 1z"/>
<path d="M6400 10975 c0 -8 4 -15 10 -15 5 0 7 7 4 15 -4 8 -8 15 -10 15 -2 0
-4 -7 -4 -15z"/>
<path d="M6388 10941 c18 -18 29 -21 57 -15 29 5 35 3 35 -11 0 -17 31 -18 31
0 0 10 -43 25 -111 40 l-35 7 23 -21z"/>
<path d="M6530 10790 c0 -5 7 -10 15 -10 8 0 15 5 15 10 0 6 -7 10 -15 10 -8
0 -15 -4 -15 -10z"/>
</g>
</svg>
