<svg width="124" height="124" viewBox="0 0 124 124" fill="none" xmlns="http://www.w3.org/2000/svg">
<path d="M45.75 2.41667V18.6667M78.25 2.41667V18.6667M45.75 105.333V121.583M78.25 105.333V121.583M105.333 45.75H121.583M105.333 72.8333H121.583M2.41666 45.75H18.6667M2.41666 72.8333H18.6667M29.5 18.6667H94.5C100.483 18.6667 105.333 23.5169 105.333 29.5V94.5C105.333 100.483 100.483 105.333 94.5 105.333H29.5C23.5169 105.333 18.6667 100.483 18.6667 94.5V29.5C18.6667 23.5169 23.5169 18.6667 29.5 18.6667ZM45.75 45.75H78.25V78.25H45.75V45.75Z" stroke="#1E1E1E" stroke-width="4" stroke-linecap="round" stroke-linejoin="round"/>
</svg>
